<?xml version="1.0" encoding="utf-8"?>
<!-- Generated by Mocodo 4.3.2 -->
<svg width="990" height="660" viewBox="0 0 990 660" xmlns="http://www.w3.org/2000/svg">
<rect x="0" y="0" width="990" height="660" fill="#ffffff" stroke="none" stroke-width="0"/>

<!-- Association ECRITURE_UTILISATEUR -->
<g>
	<line x1="265" y1="77" x2="92" y2="77" stroke="#878787" stroke-width="2"/>
	<line x1="92" y1="237" x2="92" y2="77" stroke="#878787" stroke-width="2"/>
	<g>
		<path d="M161 52 a14 14 90 0 1 14 14 V77 h-166 V66 a14 14 90 0 1 14 -14" fill="#bababa" stroke="#bababa" stroke-width="0"/>
		<path d="M175 77 v11 a14 14 90 0 1 -14 14 H23 a14 14 90 0 1 -14 -14 V77 H166" fill="#e0e0e0" stroke="#e0e0e0" stroke-width="0"/>
		<rect x="9" y="52" width="166" height="50" fill="none" rx="14" stroke="#878787" stroke-width="2"/>
		<line x1="9" y1="77" x2="175" y2="77" stroke="#878787" stroke-width="1"/>
		<text x="16" y="69.75" fill="#000000" font-family="Verdana" font-size="12">ECRITURE_UTILISATEUR</text>
	</g>
	<text x="180" y="94" fill="#b2182b" font-family="Verdana" font-size="12">0,N</text>
	<text x="97" y="144" fill="#b2182b" font-family="Verdana" font-size="12">0,1</text>
</g>

<!-- Association ALERT_ENTREPRISE -->
<g>
	<line x1="624" y1="77" x2="428" y2="77" stroke="#878787" stroke-width="2"/>
	<line x1="428" y1="237" x2="428" y2="77" stroke="#878787" stroke-width="2"/>
	<g>
		<path d="M483 52 a14 14 90 0 1 14 14 V77 h-138 V66 a14 14 90 0 1 14 -14" fill="#bababa" stroke="#bababa" stroke-width="0"/>
		<path d="M497 77 v11 a14 14 90 0 1 -14 14 H373 a14 14 90 0 1 -14 -14 V77 H138" fill="#e0e0e0" stroke="#e0e0e0" stroke-width="0"/>
		<rect x="359" y="52" width="138" height="50" fill="none" rx="14" stroke="#878787" stroke-width="2"/>
		<line x1="359" y1="77" x2="497" y2="77" stroke="#878787" stroke-width="1"/>
		<text x="367" y="69.75" fill="#000000" font-family="Verdana" font-size="12">ALERT_ENTREPRISE</text>
	</g>
	<text x="529" y="94" fill="#b2182b" font-family="Verdana" font-size="12">0,N</text>
	<text x="433" y="195" fill="#b2182b" font-family="Verdana" font-size="12">0,1</text>
</g>

<!-- Association APPARTIENT -->
<g>
	<line x1="92" y1="237" x2="265" y2="237" stroke="#878787" stroke-width="2"/>
	<line x1="428" y1="237" x2="265" y2="237" stroke="#878787" stroke-width="2"/>
	<g>
		<path d="M297 212 a14 14 90 0 1 14 14 V237 h-92 V226 a14 14 90 0 1 14 -14" fill="#bababa" stroke="#bababa" stroke-width="0"/>
		<path d="M311 237 v11 a14 14 90 0 1 -14 14 H233 a14 14 90 0 1 -14 -14 V237 H92" fill="#e0e0e0" stroke="#e0e0e0" stroke-width="0"/>
		<rect x="219" y="212" width="92" height="50" fill="none" rx="14" stroke="#878787" stroke-width="2"/>
		<line x1="219" y1="237" x2="311" y2="237" stroke="#878787" stroke-width="1"/>
		<text x="227" y="229.75" fill="#000000" font-family="Verdana" font-size="12">APPARTIENT</text>
	</g>
	<text x="146" y="254" fill="#b2182b" font-family="Verdana" font-size="12">0,N</text>
	<text x="358" y="254" fill="#b2182b" font-family="Verdana" font-size="12">0,1</text>
</g>

<!-- Association FACTURE_CLIENT -->
<g>
	<line x1="920" y1="406" x2="920" y2="237" stroke="#878787" stroke-width="2"/>
	<line x1="769" y1="237" x2="920" y2="237" stroke="#878787" stroke-width="2"/>
	<g>
		<path d="M967 212 a14 14 90 0 1 14 14 V237 h-122 V226 a14 14 90 0 1 14 -14" fill="#bababa" stroke="#bababa" stroke-width="0"/>
		<path d="M981 237 v11 a14 14 90 0 1 -14 14 H873 a14 14 90 0 1 -14 -14 V237 H122" fill="#e0e0e0" stroke="#e0e0e0" stroke-width="0"/>
		<rect x="859" y="212" width="122" height="50" fill="none" rx="14" stroke="#878787" stroke-width="2"/>
		<line x1="859" y1="237" x2="981" y2="237" stroke="#878787" stroke-width="1"/>
		<text x="866" y="229.75" fill="#000000" font-family="Verdana" font-size="12">FACTURE_CLIENT</text>
	</g>
	<text x="925" y="313" fill="#b2182b" font-family="Verdana" font-size="12">0,N</text>
	<text x="832" y="254" fill="#b2182b" font-family="Verdana" font-size="12">0,1</text>
</g>

<!-- Association A -->
<g>
	<line x1="92" y1="237" x2="92" y2="406" stroke="#878787" stroke-width="2"/>
	<line x1="265" y1="406" x2="92" y2="406" stroke="#878787" stroke-width="2"/>
	<g>
		<path d="M90 381 a14 14 90 0 1 14 14 V406 h-24 V395 a14 14 90 0 1 14 -14" fill="#bababa" stroke="#bababa" stroke-width="0"/>
		<path d="M104 406 v11 a14 14 90 0 1 -14 14 H94 a14 14 90 0 1 -14 -14 V406 H24" fill="#e0e0e0" stroke="#e0e0e0" stroke-width="0"/>
		<rect x="80" y="381" width="24" height="50" fill="none" rx="14" stroke="#878787" stroke-width="2"/>
		<line x1="80" y1="406" x2="104" y2="406" stroke="#878787" stroke-width="1"/>
		<text x="88" y="398.75" fill="#000000" font-family="Verdana" font-size="12">A</text>
	</g>
	<text x="97" y="339" fill="#b2182b" font-family="Verdana" font-size="12">0,N</text>
	<text x="212" y="423" fill="#b2182b" font-family="Verdana" font-size="12">0,1</text>
</g>

<!-- Association RAPPROCHEMENT_ENTREPRISE -->
<g>
	<line x1="624" y1="406" x2="428" y2="406" stroke="#878787" stroke-width="2"/>
	<line x1="428" y1="237" x2="428" y2="406" stroke="#878787" stroke-width="2"/>
	<g>
		<path d="M518 381 a14 14 90 0 1 14 14 V406 h-208 V395 a14 14 90 0 1 14 -14" fill="#bababa" stroke="#bababa" stroke-width="0"/>
		<path d="M532 406 v11 a14 14 90 0 1 -14 14 H338 a14 14 90 0 1 -14 -14 V406 H208" fill="#e0e0e0" stroke="#e0e0e0" stroke-width="0"/>
		<rect x="324" y="381" width="208" height="50" fill="none" rx="14" stroke="#878787" stroke-width="2"/>
		<line x1="324" y1="406" x2="532" y2="406" stroke="#878787" stroke-width="1"/>
		<text x="332" y="398.75" fill="#000000" font-family="Verdana" font-size="12">RAPPROCHEMENT_ENTREPRISE</text>
	</g>
	<text x="537" y="423" fill="#b2182b" font-family="Verdana" font-size="12">0,N</text>
	<text x="433" y="288" fill="#b2182b" font-family="Verdana" font-size="12">0,1</text>
</g>

<!-- Association DEVIS_CLIENT -->
<g>
	<line x1="769" y1="575" x2="769" y2="406" stroke="#878787" stroke-width="2"/>
	<line x1="769" y1="237" x2="769" y2="406" stroke="#878787" stroke-width="2"/>
	<g>
		<path d="M808 381 a14 14 90 0 1 14 14 V406 h-106 V395 a14 14 90 0 1 14 -14" fill="#bababa" stroke="#bababa" stroke-width="0"/>
		<path d="M822 406 v11 a14 14 90 0 1 -14 14 H730 a14 14 90 0 1 -14 -14 V406 H106" fill="#e0e0e0" stroke="#e0e0e0" stroke-width="0"/>
		<rect x="716" y="381" width="106" height="50" fill="none" rx="14" stroke="#878787" stroke-width="2"/>
		<line x1="716" y1="406" x2="822" y2="406" stroke="#878787" stroke-width="1"/>
		<text x="724" y="398.75" fill="#000000" font-family="Verdana" font-size="12">DEVIS_CLIENT</text>
	</g>
	<text x="774" y="491" fill="#b2182b" font-family="Verdana" font-size="12">0,N</text>
	<text x="774" y="330" fill="#b2182b" font-family="Verdana" font-size="12">0,1</text>
</g>

<!-- Entity ECRITURE -->
<g>
	<g>
		<rect x="207" y="9" width="116" height="25" fill="#f4a582" stroke="none" stroke-width="0" opacity="1"/>
		<rect x="207" y="34" width="116" height="111" fill="#fddbc7" stroke="none" stroke-width="0" opacity="1"/>
		<rect x="207" y="9" width="116" height="136" fill="none" stroke="#d6604d" stroke-width="2" opacity="1"/>
		<line x1="207" y1="34" x2="323" y2="34" stroke="#d6604d" stroke-width="1"/>
	</g>
	<text x="234" y="26.75" fill="#000000" font-family="Verdana" font-size="12">ECRITURE</text>
	<text x="212" y="51.8" fill="#000000" font-family="Verdana" font-size="12">id</text>
	<line x1="212" y1="54" x2="224" y2="54" stroke="#000000" stroke-width="1"/>
	<text x="212" y="68.8" fill="#000000" font-family="Verdana" font-size="12">id_utilisateur_</text>
	<line x1="212" y1="71" x2="299" y2="71" stroke="#000000" stroke-width="1"/>
	<text x="212" y="85.8" fill="#000000" font-family="Verdana" font-size="12">libelle</text>
	<text x="212" y="102.8" fill="#000000" font-family="Verdana" font-size="12">debit</text>
	<text x="212" y="119.8" fill="#000000" font-family="Verdana" font-size="12">credit</text>
	<text x="212" y="136.8" fill="#000000" font-family="Verdana" font-size="12">date_de_creation</text>
</g>

<!-- Entity ALERT_TRESORERIE -->
<g>
	<g>
		<rect x="556" y="18" width="136" height="25" fill="#f4a582" stroke="none" stroke-width="0" opacity="1"/>
		<rect x="556" y="43" width="136" height="93" fill="#fddbc7" stroke="none" stroke-width="0" opacity="1"/>
		<rect x="556" y="18" width="136" height="118" fill="none" stroke="#d6604d" stroke-width="2" opacity="1"/>
		<line x1="556" y1="43" x2="692" y2="43" stroke="#d6604d" stroke-width="1"/>
	</g>
	<text x="562" y="35.75" fill="#000000" font-family="Verdana" font-size="12">ALERT_TRESORERIE</text>
	<text x="561" y="60.8" fill="#000000" font-family="Verdana" font-size="12">id</text>
	<line x1="561" y1="63" x2="573" y2="63" stroke="#000000" stroke-width="1"/>
	<text x="561" y="77.8" fill="#000000" font-family="Verdana" font-size="12">id_entreprise_</text>
	<line x1="561" y1="80" x2="649" y2="80" stroke="#000000" stroke-width="1"/>
	<text x="561" y="94.8" fill="#000000" font-family="Verdana" font-size="12">message</text>
	<text x="561" y="111.8" fill="#000000" font-family="Verdana" font-size="12">niveau</text>
	<text x="561" y="128.8" fill="#000000" font-family="Verdana" font-size="12">date_de_creation</text>
</g>

<!-- Entity UTILISATEUR -->
<g>
	<g>
		<rect x="43" y="152" width="98" height="25" fill="#f4a582" stroke="none" stroke-width="0" opacity="1"/>
		<rect x="43" y="177" width="98" height="145" fill="#fddbc7" stroke="none" stroke-width="0" opacity="1"/>
		<rect x="43" y="152" width="98" height="170" fill="none" stroke="#d6604d" stroke-width="2" opacity="1"/>
		<line x1="43" y1="177" x2="141" y2="177" stroke="#d6604d" stroke-width="1"/>
	</g>
	<text x="51" y="169.75" fill="#000000" font-family="Verdana" font-size="12">UTILISATEUR</text>
	<text x="48" y="194.8" fill="#000000" font-family="Verdana" font-size="12">id</text>
	<line x1="48" y1="197" x2="60" y2="197" stroke="#000000" stroke-width="1"/>
	<text x="48" y="211.8" fill="#000000" font-family="Verdana" font-size="12">id_entreprise_</text>
	<line x1="48" y1="214" x2="136" y2="214" stroke="#000000" stroke-width="1"/>
	<text x="48" y="228.8" fill="#000000" font-family="Verdana" font-size="12">id_role_</text>
	<line x1="48" y1="231" x2="98" y2="231" stroke="#000000" stroke-width="1"/>
	<text x="48" y="245.8" fill="#000000" font-family="Verdana" font-size="12">nom</text>
	<text x="48" y="262.8" fill="#000000" font-family="Verdana" font-size="12">prénom</text>
	<text x="48" y="279.8" fill="#000000" font-family="Verdana" font-size="12">email</text>
	<text x="48" y="296.8" fill="#000000" font-family="Verdana" font-size="12">motDePasse</text>
	<text x="48" y="313.8" fill="#000000" font-family="Verdana" font-size="12">deux_fa</text>
</g>

<!-- Entity ENTREPRISE -->
<g>
	<g>
		<rect x="384" y="203" width="88" height="25" fill="#f4a582" stroke="none" stroke-width="0" opacity="1"/>
		<rect x="384" y="228" width="88" height="43" fill="#fddbc7" stroke="none" stroke-width="0" opacity="1"/>
		<rect x="384" y="203" width="88" height="68" fill="none" stroke="#d6604d" stroke-width="2" opacity="1"/>
		<line x1="384" y1="228" x2="472" y2="228" stroke="#d6604d" stroke-width="1"/>
	</g>
	<text x="390" y="220.75" fill="#000000" font-family="Verdana" font-size="12">ENTREPRISE</text>
	<text x="389" y="245.8" fill="#000000" font-family="Verdana" font-size="12">id</text>
	<line x1="389" y1="248" x2="401" y2="248" stroke="#000000" stroke-width="1"/>
	<text x="389" y="262.8" fill="#000000" font-family="Verdana" font-size="12">nom</text>
</g>

<!-- Entity CLIENT -->
<g>
	<g>
		<rect x="711" y="161" width="116" height="25" fill="#f4a582" stroke="none" stroke-width="0" opacity="1"/>
		<rect x="711" y="186" width="116" height="127" fill="#fddbc7" stroke="none" stroke-width="0" opacity="1"/>
		<rect x="711" y="161" width="116" height="152" fill="none" stroke="#d6604d" stroke-width="2" opacity="1"/>
		<line x1="711" y1="186" x2="827" y2="186" stroke="#d6604d" stroke-width="1"/>
	</g>
	<text x="747" y="178.75" fill="#000000" font-family="Verdana" font-size="12">CLIENT</text>
	<text x="716" y="203.8" fill="#000000" font-family="Verdana" font-size="12">id</text>
	<line x1="716" y1="206" x2="728" y2="206" stroke="#000000" stroke-width="1"/>
	<text x="716" y="220.8" fill="#000000" font-family="Verdana" font-size="12">id_entreprise_</text>
	<line x1="716" y1="223" x2="804" y2="223" stroke="#000000" stroke-width="1"/>
	<text x="716" y="237.8" fill="#000000" font-family="Verdana" font-size="12">nom</text>
	<text x="716" y="254.8" fill="#000000" font-family="Verdana" font-size="12">email</text>
	<text x="716" y="271.8" fill="#000000" font-family="Verdana" font-size="12">telephone</text>
	<text x="716" y="288.8" fill="#000000" font-family="Verdana" font-size="12">adresse</text>
	<text x="716" y="305.8" fill="#000000" font-family="Verdana" font-size="12">date_de_creation</text>
</g>

<!-- Entity ROLE -->
<g>
	<g>
		<rect x="238" y="372" width="54" height="25" fill="#f4a582" stroke="none" stroke-width="0" opacity="1"/>
		<rect x="238" y="397" width="54" height="43" fill="#fddbc7" stroke="none" stroke-width="0" opacity="1"/>
		<rect x="238" y="372" width="54" height="68" fill="none" stroke="#d6604d" stroke-width="2" opacity="1"/>
		<line x1="238" y1="397" x2="292" y2="397" stroke="#d6604d" stroke-width="1"/>
	</g>
	<text x="249" y="389.75" fill="#000000" font-family="Verdana" font-size="12">ROLE</text>
	<text x="243" y="414.8" fill="#000000" font-family="Verdana" font-size="12">id</text>
	<line x1="243" y1="417" x2="255" y2="417" stroke="#000000" stroke-width="1"/>
	<text x="243" y="431.8" fill="#000000" font-family="Verdana" font-size="12">libelle*</text>
</g>

<!-- Entity RAPPROCHEMENT -->
<g>
	<g>
		<rect x="564" y="338" width="120" height="25" fill="#f4a582" stroke="none" stroke-width="0" opacity="1"/>
		<rect x="564" y="363" width="120" height="111" fill="#fddbc7" stroke="none" stroke-width="0" opacity="1"/>
		<rect x="564" y="338" width="120" height="136" fill="none" stroke="#d6604d" stroke-width="2" opacity="1"/>
		<line x1="564" y1="363" x2="684" y2="363" stroke="#d6604d" stroke-width="1"/>
	</g>
	<text x="570" y="355.75" fill="#000000" font-family="Verdana" font-size="12">RAPPROCHEMENT</text>
	<text x="569" y="380.8" fill="#000000" font-family="Verdana" font-size="12">id</text>
	<line x1="569" y1="383" x2="581" y2="383" stroke="#000000" stroke-width="1"/>
	<text x="569" y="397.8" fill="#000000" font-family="Verdana" font-size="12">id_entreprise_</text>
	<line x1="569" y1="400" x2="657" y2="400" stroke="#000000" stroke-width="1"/>
	<text x="569" y="414.8" fill="#000000" font-family="Verdana" font-size="12">date</text>
	<text x="569" y="431.8" fill="#000000" font-family="Verdana" font-size="12">montant</text>
	<text x="569" y="448.8" fill="#000000" font-family="Verdana" font-size="12">statut</text>
	<text x="569" y="465.8" fill="#000000" font-family="Verdana" font-size="12">date_de_creation</text>
</g>

<!-- Entity FACTURE -->
<g>
	<g>
		<rect x="862" y="321" width="116" height="25" fill="#f4a582" stroke="none" stroke-width="0" opacity="1"/>
		<rect x="862" y="346" width="116" height="145" fill="#fddbc7" stroke="none" stroke-width="0" opacity="1"/>
		<rect x="862" y="321" width="116" height="170" fill="none" stroke="#d6604d" stroke-width="2" opacity="1"/>
		<line x1="862" y1="346" x2="978" y2="346" stroke="#d6604d" stroke-width="1"/>
	</g>
	<text x="892" y="338.75" fill="#000000" font-family="Verdana" font-size="12">FACTURE</text>
	<text x="867" y="363.8" fill="#000000" font-family="Verdana" font-size="12">id</text>
	<line x1="867" y1="366" x2="879" y2="366" stroke="#000000" stroke-width="1"/>
	<text x="867" y="380.8" fill="#000000" font-family="Verdana" font-size="12">id_entreprise_</text>
	<line x1="867" y1="383" x2="955" y2="383" stroke="#000000" stroke-width="1"/>
	<text x="867" y="397.8" fill="#000000" font-family="Verdana" font-size="12">id_client_</text>
	<line x1="867" y1="400" x2="926" y2="400" stroke="#000000" stroke-width="1"/>
	<text x="867" y="414.8" fill="#000000" font-family="Verdana" font-size="12">montant</text>
	<text x="867" y="431.8" fill="#000000" font-family="Verdana" font-size="12">statut</text>
	<text x="867" y="448.8" fill="#000000" font-family="Verdana" font-size="12">date_emission</text>
	<text x="867" y="465.8" fill="#000000" font-family="Verdana" font-size="12">date_echeance</text>
	<text x="867" y="482.8" fill="#000000" font-family="Verdana" font-size="12">date_de_creation</text>
</g>

<!-- Entity DEVIS -->
<g>
	<g>
		<rect x="711" y="499" width="116" height="25" fill="#f4a582" stroke="none" stroke-width="0" opacity="1"/>
		<rect x="711" y="524" width="116" height="127" fill="#fddbc7" stroke="none" stroke-width="0" opacity="1"/>
		<rect x="711" y="499" width="116" height="152" fill="none" stroke="#d6604d" stroke-width="2" opacity="1"/>
		<line x1="711" y1="524" x2="827" y2="524" stroke="#d6604d" stroke-width="1"/>
	</g>
	<text x="750" y="516.75" fill="#000000" font-family="Verdana" font-size="12">DEVIS</text>
	<text x="716" y="541.8" fill="#000000" font-family="Verdana" font-size="12">id</text>
	<line x1="716" y1="544" x2="728" y2="544" stroke="#000000" stroke-width="1"/>
	<text x="716" y="558.8" fill="#000000" font-family="Verdana" font-size="12">id_entreprise_</text>
	<line x1="716" y1="561" x2="804" y2="561" stroke="#000000" stroke-width="1"/>
	<text x="716" y="575.8" fill="#000000" font-family="Verdana" font-size="12">id_client_</text>
	<line x1="716" y1="578" x2="775" y2="578" stroke="#000000" stroke-width="1"/>
	<text x="716" y="592.8" fill="#000000" font-family="Verdana" font-size="12">montant</text>
	<text x="716" y="609.8" fill="#000000" font-family="Verdana" font-size="12">statut</text>
	<text x="716" y="626.8" fill="#000000" font-family="Verdana" font-size="12">date_emission</text>
	<text x="716" y="643.8" fill="#000000" font-family="Verdana" font-size="12">date_de_creation</text>
</g>
</svg>